<svg width="20" height="20" viewBox="0 0 20 20" fill="none" xmlns="http://www.w3.org/2000/svg">
<path fill-rule="evenodd" clip-rule="evenodd" d="M10 0C7.284 0 6.944 0.0119999 5.877 0.0599999C4.813 0.109 4.086 0.278 3.45 0.525C2.78247 0.775816 2.17773 1.16931 1.678 1.678C1.16931 2.17773 0.775816 2.78247 0.525 3.45C0.278 4.086 0.109 4.813 0.0599999 5.877C0.0109999 6.944 0 7.284 0 10C0 12.716 0.0109999 13.056 0.0599999 14.123C0.109 15.187 0.278 15.914 0.525 16.55C0.775816 17.2175 1.16931 17.8223 1.678 18.322C2.17773 18.8307 2.78247 19.2242 3.45 19.475C4.086 19.722 4.813 19.891 5.877 19.94C6.944 19.988 7.284 20 10 20C12.716 20 13.056 19.988 14.123 19.94C15.187 19.891 15.914 19.722 16.55 19.475C17.2175 19.2242 17.8223 18.8307 18.322 18.322C18.8307 17.8223 19.2242 17.2175 19.475 16.55C19.722 15.914 19.891 15.187 19.94 14.123C19.988 13.056 20 12.716 20 10C20 7.284 19.988 6.944 19.94 5.877C19.891 4.813 19.722 4.086 19.475 3.45C19.2242 2.78247 18.8307 2.17773 18.322 1.678C17.8223 1.16931 17.2175 0.775816 16.55 0.525C15.914 0.278 15.187 0.109 14.123 0.0599999C13.056 0.0119999 12.716 0 10 0ZM10 1.802C12.67 1.802 12.986 1.812 14.04 1.86C15.016 1.905 15.545 2.067 15.898 2.204C16.364 2.386 16.698 2.603 17.048 2.952C17.398 3.302 17.614 3.636 17.796 4.102C17.932 4.455 18.096 4.984 18.14 5.959C18.188 7.014 18.198 7.329 18.198 10C18.198 12.67 18.188 12.986 18.14 14.04C18.095 15.016 17.932 15.545 17.796 15.898C17.6357 16.3324 17.3801 16.7253 17.048 17.048C16.698 17.398 16.364 17.614 15.898 17.796C15.545 17.932 15.016 18.096 14.041 18.14C12.987 18.188 12.671 18.198 10 18.198C7.33 18.198 7.013 18.188 5.96 18.14C4.984 18.095 4.455 17.932 4.102 17.796C3.66762 17.6357 3.27466 17.3801 2.952 17.048C2.61991 16.7253 2.36432 16.3324 2.204 15.898C2.067 15.545 1.904 15.016 1.86 14.041C1.812 12.986 1.802 12.671 1.802 10C1.802 7.33 1.812 7.014 1.86 5.96C1.905 4.984 2.067 4.455 2.204 4.102C2.386 3.636 2.603 3.302 2.952 2.952C3.302 2.602 3.636 2.386 4.102 2.204C4.455 2.067 4.984 1.904 5.959 1.86C7.014 1.812 7.329 1.802 10 1.802ZM10 13.333C9.11603 13.333 8.26827 12.9818 7.64321 12.3568C7.01815 11.7317 6.667 10.884 6.667 10C6.667 9.11603 7.01815 8.26827 7.64321 7.64321C8.26827 7.01815 9.11603 6.667 10 6.667C10.884 6.667 11.7317 7.01815 12.3568 7.64321C12.9818 8.26827 13.333 9.11603 13.333 10C13.333 10.884 12.9818 11.7317 12.3568 12.3568C11.7317 12.9818 10.884 13.333 10 13.333ZM10 4.865C9.32566 4.865 8.65793 4.99782 8.03492 5.25588C7.41191 5.51394 6.84584 5.89218 6.36901 6.36901C5.89218 6.84584 5.51394 7.41191 5.25588 8.03492C4.99782 8.65793 4.865 9.32566 4.865 10C4.865 10.6743 4.99782 11.3421 5.25588 11.9651C5.51394 12.5881 5.89218 13.1542 6.36901 13.631C6.84584 14.1078 7.41191 14.4861 8.03492 14.7441C8.65793 15.0022 9.32566 15.135 10 15.135C11.3619 15.135 12.668 14.594 13.631 13.631C14.594 12.668 15.135 11.3619 15.135 10C15.135 8.63811 14.594 7.33201 13.631 6.36901C12.668 5.40601 11.3619 4.865 10 4.865ZM16.538 4.662C16.538 4.81959 16.507 4.97563 16.4467 5.12122C16.3863 5.26681 16.298 5.3991 16.1865 5.51053C16.0751 5.62196 15.9428 5.71035 15.7972 5.77066C15.6516 5.83096 15.4956 5.862 15.338 5.862C15.1804 5.862 15.0244 5.83096 14.8788 5.77066C14.7332 5.71035 14.6009 5.62196 14.4895 5.51053C14.378 5.3991 14.2897 5.26681 14.2293 5.12122C14.169 4.97563 14.138 4.81959 14.138 4.662C14.138 4.34374 14.2644 4.03852 14.4895 3.81347C14.7145 3.58843 15.0197 3.462 15.338 3.462C15.6563 3.462 15.9615 3.58843 16.1865 3.81347C16.4116 4.03852 16.538 4.34374 16.538 4.662Z" fill="black"/>
</svg>
