<svg width="21" height="21" viewBox="0 0 21 21" fill="none" xmlns="http://www.w3.org/2000/svg">
<path fill-rule="evenodd" clip-rule="evenodd" d="M3 0.25C2.27065 0.25 1.57118 0.539731 1.05546 1.05546C0.539731 1.57118 0.25 2.27065 0.25 3C0.25 3.72935 0.539731 4.42882 1.05546 4.94454C1.57118 5.46027 2.27065 5.75 3 5.75C3.72935 5.75 4.42882 5.46027 4.94454 4.94454C5.46027 4.42882 5.75 3.72935 5.75 3C5.75 2.27065 5.46027 1.57118 4.94454 1.05546C4.42882 0.539731 3.72935 0.25 3 0.25ZM1.75 3C1.75 2.66848 1.8817 2.35054 2.11612 2.11612C2.35054 1.8817 2.66848 1.75 3 1.75C3.33152 1.75 3.64946 1.8817 3.88388 2.11612C4.1183 2.35054 4.25 2.66848 4.25 3C4.25 3.33152 4.1183 3.64946 3.88388 3.88388C3.64946 4.1183 3.33152 4.25 3 4.25C2.66848 4.25 2.35054 4.1183 2.11612 3.88388C1.8817 3.64946 1.75 3.33152 1.75 3ZM0.25 7C0.25 6.80109 0.329018 6.61032 0.46967 6.46967C0.610322 6.32902 0.801088 6.25 1 6.25H5C5.19891 6.25 5.38968 6.32902 5.53033 6.46967C5.67098 6.61032 5.75 6.80109 5.75 7V20C5.75 20.1989 5.67098 20.3897 5.53033 20.5303C5.38968 20.671 5.19891 20.75 5 20.75H1C0.801088 20.75 0.610322 20.671 0.46967 20.5303C0.329018 20.3897 0.25 20.1989 0.25 20V7ZM1.75 7.75V19.25H4.25V7.75H1.75ZM7.25 7C7.25 6.80109 7.32902 6.61032 7.46967 6.46967C7.61032 6.32902 7.80109 6.25 8 6.25H12C12.1989 6.25 12.3897 6.32902 12.5303 6.46967C12.671 6.61032 12.75 6.80109 12.75 7V7.434L13.185 7.247C13.9351 6.9266 14.7307 6.72583 15.543 6.652C18.318 6.4 20.75 8.58 20.75 11.38V20C20.75 20.1989 20.671 20.3897 20.5303 20.5303C20.3897 20.671 20.1989 20.75 20 20.75H16C15.8011 20.75 15.6103 20.671 15.4697 20.5303C15.329 20.3897 15.25 20.1989 15.25 20V13C15.25 12.6685 15.1183 12.3505 14.8839 12.1161C14.6495 11.8817 14.3315 11.75 14 11.75C13.6685 11.75 13.3505 11.8817 13.1161 12.1161C12.8817 12.3505 12.75 12.6685 12.75 13V20C12.75 20.1989 12.671 20.3897 12.5303 20.5303C12.3897 20.671 12.1989 20.75 12 20.75H8C7.80109 20.75 7.61032 20.671 7.46967 20.5303C7.32902 20.3897 7.25 20.1989 7.25 20V7ZM8.75 7.75V19.25H11.25V13C11.25 12.2707 11.5397 11.5712 12.0555 11.0555C12.5712 10.5397 13.2707 10.25 14 10.25C14.7293 10.25 15.4288 10.5397 15.9445 11.0555C16.4603 11.5712 16.75 12.2707 16.75 13V19.25H19.25V11.38C19.25 9.476 17.589 7.972 15.68 8.146C15.0241 8.2055 14.3817 8.36747 13.776 8.626L12.296 9.261C12.1818 9.31003 12.0573 9.32994 11.9336 9.31893C11.8098 9.30793 11.6907 9.26635 11.587 9.19794C11.4833 9.12953 11.3982 9.03643 11.3394 8.927C11.2806 8.81757 11.2499 8.69524 11.25 8.571V7.75H8.75Z" fill="black"/>
</svg>
