<?xml version="1.0" encoding="utf-8"?>
<!-- Generator: Adobe Illustrator 24.1.1, SVG Export Plug-In . SVG Version: 6.00 Build 0)  -->
<svg version="1.1" id="Layer_1" xmlns="http://www.w3.org/2000/svg" xmlns:xlink="http://www.w3.org/1999/xlink" x="0px" y="0px"
	 viewBox="0 0 512 512" style="enable-background:new 0 0 512 512;" xml:space="preserve">
<style type="text/css">
	.st0{fill:#555555;}
</style>
<g>
	<path class="st0" d="M242.4,0c81.5,0,147.6,65.7,147.6,146.8c0,44.7-20.1,84.7-51.7,111.6c6.9,3.4,13.2,6.9,18.9,10.3
		c12.2,7.4,24.9,16.6,38.1,27.6c7.5,6.2,8.5,17.4,2.2,24.8c-6.3,7.5-17.4,8.4-24.9,2.2c-11.9-9.9-23.2-18.1-33.9-24.6
		c-9.6-5.8-21.6-11.9-36-18c-18.5,8.2-38.9,12.8-60.3,12.8c-23.8,0-46.2-5.6-66.1-15.5l-1.1,0.5c-49.9,19.4-86.4,48-109.9,86
		c-23.6,38.1-33.2,80.7-28.9,128.4c0.9,9.7-6.3,18.3-16.1,19.1c-9.7,0.9-18.4-6.3-19.2-16c-5-55.1,6.4-105.3,34.1-150
		c24.3-39.3,60.1-69.9,106.9-91.7c-29.1-26.8-47.3-65.1-47.3-107.6C94.8,65.7,160.9,0,242.4,0z M431.8,324.9
		c9.7,0,17.6,7.9,17.6,17.7v44.9l44.9,0c9.8,0,17.7,7.9,17.7,17.6s-7.9,17.6-17.7,17.6h-44.9v44.9c0,9.8-7.9,17.7-17.6,17.7
		c-9.7,0-17.6-7.9-17.6-17.7l0-44.9h-44.9c-9.8,0-17.7-7.9-17.7-17.6s7.9-17.6,17.7-17.6l44.9,0l0-44.9
		C414.2,332.9,422.1,324.9,431.8,324.9z M242.4,35.2c-61.9,0-112.2,49.9-112.2,111.5c0,61.6,50.2,111.5,112.2,111.5
		c62,0,112.2-49.9,112.2-111.5C354.5,85.2,304.3,35.2,242.4,35.2z"/>
</g>
</svg>
