<svg width="24" height="24" viewBox="0 0 24 24" fill="none" xmlns="http://www.w3.org/2000/svg">
<path d="M3 12H12V13.5H3V12ZM1.5 8.25H9V9.75H1.5V8.25Z" fill="#0F172A"/>
<path d="M22.4393 12.4545L20.1893 7.2045C20.1314 7.06962 20.0353 6.95466 19.9128 6.87387C19.7903 6.79309 19.6468 6.75002 19.5 6.75H17.25V5.25C17.25 5.05109 17.171 4.86032 17.0303 4.71967C16.8897 4.57902 16.6989 4.5 16.5 4.5H4.50001V6H15.75V15.417C15.4085 15.6157 15.1095 15.8799 14.8704 16.1945C14.6313 16.509 14.4566 16.8678 14.3565 17.25H9.64351C9.46096 16.543 9.02683 15.9269 8.4225 15.517C7.81817 15.1072 7.08512 14.9319 6.36076 15.0239C5.6364 15.1159 4.97046 15.4689 4.48777 16.0168C4.00507 16.5647 3.73877 17.2698 3.73877 18C3.73877 18.7302 4.00507 19.4353 4.48777 19.9832C4.97046 20.5311 5.6364 20.8841 6.36076 20.9761C7.08512 21.0681 7.81817 20.8928 8.4225 20.483C9.02683 20.0731 9.46096 19.457 9.64351 18.75H14.3565C14.5197 19.3937 14.8928 19.9646 15.4168 20.3724C15.9409 20.7802 16.586 21.0016 17.25 21.0016C17.914 21.0016 18.5591 20.7802 19.0832 20.3724C19.6072 19.9646 19.9804 19.3937 20.1435 18.75H21.75C21.9489 18.75 22.1397 18.671 22.2803 18.5303C22.421 18.3897 22.5 18.1989 22.5 18V12.75C22.5 12.6484 22.4793 12.5479 22.4393 12.4545ZM6.75001 19.5C6.45334 19.5 6.16333 19.412 5.91665 19.2472C5.66998 19.0824 5.47772 18.8481 5.36419 18.574C5.25066 18.2999 5.22095 17.9983 5.27883 17.7074C5.33671 17.4164 5.47957 17.1491 5.68935 16.9393C5.89913 16.7296 6.1664 16.5867 6.45737 16.5288C6.74834 16.4709 7.04994 16.5006 7.32403 16.6142C7.59812 16.7277 7.83239 16.92 7.99721 17.1666C8.16203 17.4133 8.25001 17.7033 8.25001 18C8.25001 18.3978 8.09197 18.7794 7.81067 19.0607C7.52936 19.342 7.14783 19.5 6.75001 19.5ZM17.25 8.25H19.005L20.613 12H17.25V8.25ZM17.25 19.5C16.9533 19.5 16.6633 19.412 16.4167 19.2472C16.17 19.0824 15.9777 18.8481 15.8642 18.574C15.7507 18.2999 15.721 17.9983 15.7788 17.7074C15.8367 17.4164 15.9796 17.1491 16.1893 16.9393C16.3991 16.7296 16.6664 16.5867 16.9574 16.5288C17.2483 16.4709 17.5499 16.5006 17.824 16.6142C18.0981 16.7277 18.3324 16.92 18.4972 17.1666C18.662 17.4133 18.75 17.7033 18.75 18C18.75 18.3978 18.592 18.7794 18.3107 19.0607C18.0294 19.342 17.6478 19.5 17.25 19.5ZM21 17.25H20.1435C19.9783 16.6076 19.6046 16.0381 19.0809 15.6309C18.5573 15.2238 17.9133 15.0018 17.25 15V13.5H21V17.25Z" fill="#0F172A"/>
</svg>
