<svg width="20" height="20" viewBox="0 0 20 20" fill="none" xmlns="http://www.w3.org/2000/svg">
<path d="M19.5308 18.4696L14.8368 13.7765C16.1973 12.1431 16.8757 10.048 16.7309 7.92715C16.5861 5.80629 15.6293 3.82289 14.0593 2.38956C12.4894 0.956234 10.4274 0.183327 8.30213 0.231627C6.17687 0.279927 4.15205 1.14571 2.64888 2.64888C1.14571 4.15205 0.279927 6.17687 0.231627 8.30213C0.183327 10.4274 0.956234 12.4894 2.38956 14.0593C3.82289 15.6293 5.80629 16.5861 7.92715 16.7309C10.048 16.8757 12.1431 16.1973 13.7765 14.8368L18.4696 19.5308C18.5393 19.6005 18.622 19.6558 18.713 19.6935C18.8041 19.7312 18.9017 19.7506 19.0002 19.7506C19.0988 19.7506 19.1963 19.7312 19.2874 19.6935C19.3784 19.6558 19.4612 19.6005 19.5308 19.5308C19.6005 19.4612 19.6558 19.3784 19.6935 19.2874C19.7312 19.1963 19.7506 19.0988 19.7506 19.0002C19.7506 18.9017 19.7312 18.8041 19.6935 18.713C19.6558 18.622 19.6005 18.5393 19.5308 18.4696ZM1.75021 8.50021C1.75021 7.16519 2.14609 5.86015 2.88779 4.75011C3.62949 3.64008 4.6837 2.77492 5.9171 2.26403C7.1505 1.75314 8.5077 1.61946 9.81707 1.87991C11.1264 2.14036 12.3292 2.78324 13.2732 3.72724C14.2172 4.67125 14.8601 5.87398 15.1205 7.18335C15.381 8.49273 15.2473 9.84993 14.7364 11.0833C14.2255 12.3167 13.3603 13.3709 12.2503 14.1126C11.1403 14.8543 9.83524 15.2502 8.50021 15.2502C6.71061 15.2482 4.99488 14.5364 3.72944 13.271C2.464 12.0056 1.7522 10.2898 1.75021 8.50021Z" fill="#525252"/>
</svg>
