<svg width="18" height="18" viewBox="0 0 18 18" fill="none" xmlns="http://www.w3.org/2000/svg">
<path d="M4.00002 6.84375V0.75C4.00002 0.551088 3.93417 0.360322 3.81696 0.21967C3.69975 0.0790178 3.54078 0 3.37502 0C3.20926 0 3.05029 0.0790178 2.93308 0.21967C2.81587 0.360322 2.75002 0.551088 2.75002 0.75V6.84375C2.21226 7.00898 1.73562 7.38428 1.39524 7.91048C1.05487 8.43669 0.870117 9.08387 0.870117 9.75C0.870117 10.4161 1.05487 11.0633 1.39524 11.5895C1.73562 12.1157 2.21226 12.491 2.75002 12.6562V17.25C2.75002 17.4489 2.81587 17.6397 2.93308 17.7803C3.05029 17.921 3.20926 18 3.37502 18C3.54078 18 3.69975 17.921 3.81696 17.7803C3.93417 17.6397 4.00002 17.4489 4.00002 17.25V12.6562C4.53778 12.491 5.01442 12.1157 5.35479 11.5895C5.69517 11.0633 5.87992 10.4161 5.87992 9.75C5.87992 9.08387 5.69517 8.43669 5.35479 7.91048C5.01442 7.38428 4.53778 7.00898 4.00002 6.84375ZM3.37502 11.25C3.12779 11.25 2.88612 11.162 2.68056 10.9972C2.475 10.8324 2.31478 10.5981 2.22017 10.324C2.12556 10.0499 2.10081 9.74834 2.14904 9.45737C2.19727 9.16639 2.31632 8.89912 2.49114 8.68934C2.66595 8.47956 2.88868 8.3367 3.13116 8.27882C3.37363 8.22094 3.62497 8.25065 3.85337 8.36418C4.08178 8.47771 4.277 8.66997 4.41436 8.91665C4.55171 9.16332 4.62502 9.45333 4.62502 9.75C4.62502 10.1478 4.49332 10.5294 4.2589 10.8107C4.02448 11.092 3.70654 11.25 3.37502 11.25ZM9.62502 2.34375V0.75C9.62502 0.551088 9.55917 0.360322 9.44196 0.21967C9.32475 0.0790178 9.16578 0 9.00002 0C8.83426 0 8.67529 0.0790178 8.55808 0.21967C8.44087 0.360322 8.37502 0.551088 8.37502 0.75V2.34375C7.83726 2.50898 7.36062 2.88428 7.02024 3.41048C6.67987 3.93669 6.49512 4.58387 6.49512 5.25C6.49512 5.91613 6.67987 6.56331 7.02024 7.08952C7.36062 7.61572 7.83726 7.99102 8.37502 8.15625V17.25C8.37502 17.4489 8.44087 17.6397 8.55808 17.7803C8.67529 17.921 8.83426 18 9.00002 18C9.16578 18 9.32475 17.921 9.44196 17.7803C9.55917 17.6397 9.62502 17.4489 9.62502 17.25V8.15625C10.1628 7.99102 10.6394 7.61572 10.9798 7.08952C11.3202 6.56331 11.5049 5.91613 11.5049 5.25C11.5049 4.58387 11.3202 3.93669 10.9798 3.41048C10.6394 2.88428 10.1628 2.50898 9.62502 2.34375ZM9.00002 6.75C8.75279 6.75 8.51112 6.66203 8.30556 6.4972C8.1 6.33238 7.93978 6.09811 7.84517 5.82403C7.75056 5.54994 7.72581 5.24834 7.77404 4.95736C7.82227 4.66639 7.94132 4.39912 8.11614 4.18934C8.29095 3.97956 8.51368 3.8367 8.75616 3.77882C8.99863 3.72094 9.24997 3.75065 9.47837 3.86418C9.70678 3.97771 9.902 4.16997 10.0394 4.41665C10.1767 4.66332 10.25 4.95333 10.25 5.25C10.25 5.64782 10.1183 6.02936 9.8839 6.31066C9.64948 6.59196 9.33154 6.75 9.00002 6.75ZM17.125 12.75C17.1245 12.0849 16.9401 11.4388 16.6008 10.9129C16.2616 10.387 15.7865 10.011 15.25 9.84375V0.75C15.25 0.551088 15.1842 0.360322 15.067 0.21967C14.9498 0.0790178 14.7908 0 14.625 0C14.4593 0 14.3003 0.0790178 14.1831 0.21967C14.0659 0.360322 14 0.551088 14 0.75V9.84375C13.4623 10.009 12.9856 10.3843 12.6452 10.9105C12.3049 11.4367 12.1201 12.0839 12.1201 12.75C12.1201 13.4161 12.3049 14.0633 12.6452 14.5895C12.9856 15.1157 13.4623 15.491 14 15.6562V17.25C14 17.4489 14.0659 17.6397 14.1831 17.7803C14.3003 17.921 14.4593 18 14.625 18C14.7908 18 14.9498 17.921 15.067 17.7803C15.1842 17.6397 15.25 17.4489 15.25 17.25V15.6562C15.7865 15.489 16.2616 15.113 16.6008 14.5871C16.9401 14.0612 17.1245 13.4151 17.125 12.75ZM14.625 14.25C14.3778 14.25 14.1361 14.162 13.9306 13.9972C13.725 13.8324 13.5648 13.5981 13.4702 13.324C13.3756 13.0499 13.3508 12.7483 13.399 12.4574C13.4473 12.1664 13.5663 11.8991 13.7411 11.6893C13.916 11.4796 14.1387 11.3367 14.3812 11.2788C14.6236 11.2209 14.875 11.2506 15.1034 11.3642C15.3318 11.4777 15.527 11.67 15.6644 11.9166C15.8017 12.1633 15.875 12.4533 15.875 12.75C15.875 13.1478 15.7433 13.5294 15.5089 13.8107C15.2745 14.092 14.9565 14.25 14.625 14.25Z" fill="#98A2B3"/>
</svg>