<svg width="17" height="16" viewBox="0 0 17 16" fill="none" xmlns="http://www.w3.org/2000/svg">
<g clip-path="url(#clip0_37694_31074)">
<path d="M0.5 3V4H10V11.5H6.922C6.699 10.6405 5.926 10 5 10C4.074 10 3.301 10.6405 3.078 11.5H2.5V9H1.5V12.5H3.078C3.301 13.3595 4.074 14 5 14C5.926 14 6.699 13.3595 6.922 12.5H11.078C11.301 13.3595 12.074 14 13 14C13.926 14 14.699 13.3595 14.922 12.5H16.5V8.422L16.4685 8.3435L15.4685 5.3435L15.36 5H11V3H0.5ZM1 5V6H5.5V5H1ZM11 6H14.6405L15.5 8.5625V11.5H14.922C14.699 10.6405 13.926 10 13 10C12.074 10 11.301 10.6405 11.078 11.5H11V6ZM1.5 7V8H4.5V7H1.5ZM5 11C5.5585 11 6 11.4415 6 12C6 12.5585 5.5585 13 5 13C4.4415 13 4 12.5585 4 12C4 11.4415 4.4415 11 5 11ZM13 11C13.5585 11 14 11.4415 14 12C14 12.5585 13.5585 13 13 13C12.4415 13 12 12.5585 12 12C12 11.4415 12.4415 11 13 11Z" fill="#525252" fill-opacity="0.65"/>
</g>
<defs>
<clipPath id="clip0_37694_31074">
<rect width="16" height="16" fill="white" transform="translate(0.5)"/>
</clipPath>
</defs>
</svg>
