<svg width="35" height="35" viewBox="0 0 35 35" fill="none" xmlns="http://www.w3.org/2000/svg">
<circle cx="17.5" cy="17.5" r="17.5" fill="#0ED970"/>
<rect width="20" height="20" transform="translate(8 7.5)" fill="#0ED970"/>
<path d="M15.1875 11.25C14.608 11.2523 14.053 11.4835 13.6432 11.8932C13.2335 12.303 13.0023 12.858 13 13.4375C13 14.6388 13.9862 15.625 15.1875 15.625C16.3888 15.625 17.375 14.6388 17.375 13.4375C17.375 12.2362 16.3888 11.25 15.1875 11.25ZM20.8125 11.25C20.233 11.2523 19.678 11.4835 19.2682 11.8932C18.8585 12.303 18.6273 12.858 18.625 13.4375C18.625 14.6388 19.6112 15.625 20.8125 15.625C22.0138 15.625 23 14.6388 23 13.4375C23 12.2362 22.0138 11.25 20.8125 11.25ZM15.1875 12.5C15.7125 12.5 16.125 12.9125 16.125 13.4375C16.125 13.9625 15.7125 14.375 15.1875 14.375C14.6625 14.375 14.25 13.9625 14.25 13.4375C14.25 12.9125 14.6625 12.5 15.1875 12.5ZM20.8125 12.5C21.3375 12.5 21.75 12.9125 21.75 13.4375C21.75 13.9625 21.3375 14.375 20.8125 14.375C20.2875 14.375 19.875 13.9625 19.875 13.4375C19.875 12.9125 20.2875 12.5 20.8125 12.5ZM12.375 15C11 15 9.875 16.125 9.875 17.5C9.875 18.1956 10.1731 18.8231 10.6369 19.2775C10.2116 19.5647 9.86295 19.9515 9.62125 20.4042C9.37954 20.8569 9.2521 21.3618 9.25 21.875H10.5C10.5 20.8325 11.3325 20 12.375 20C13.4175 20 14.25 20.8325 14.25 21.875H15.5C15.4979 21.3618 15.3705 20.8569 15.1288 20.4042C14.887 19.9515 14.5384 19.5647 14.1131 19.2775C14.5769 18.8231 14.875 18.1962 14.875 17.5C14.875 16.125 13.75 15 12.375 15ZM15.5 21.875C15.1094 22.3975 14.875 23.0544 14.875 23.75H16.125C16.125 22.7075 16.9575 21.875 18 21.875C19.0425 21.875 19.875 22.7075 19.875 23.75H21.125C21.1241 23.074 20.9049 22.4163 20.5 21.875C20.2875 21.5919 20.0312 21.35 19.7381 21.1525C20.2019 20.6981 20.5 20.0712 20.5 19.375C20.5 18 19.375 16.875 18 16.875C16.625 16.875 15.5 18 15.5 19.375C15.5 20.0706 15.7981 20.6981 16.2619 21.1525C15.969 21.3486 15.7114 21.5929 15.5 21.875ZM20.5 21.875H21.75C21.75 20.8325 22.5825 20 23.625 20C24.6675 20 25.5 20.8325 25.5 21.875H26.75C26.7479 21.3618 26.6205 20.8569 26.3788 20.4042C26.137 19.9515 25.7884 19.5647 25.3631 19.2775C25.8269 18.8231 26.125 18.1962 26.125 17.5C26.125 16.125 25 15 23.625 15C22.25 15 21.125 16.125 21.125 17.5C21.125 18.1956 21.4231 18.8231 21.8869 19.2775C21.4616 19.5647 21.113 19.9515 20.8712 20.4042C20.6295 20.8569 20.5021 21.3618 20.5 21.875ZM12.375 16.25C13.0731 16.25 13.625 16.8019 13.625 17.5C13.625 18.1981 13.0731 18.75 12.375 18.75C11.6769 18.75 11.125 18.1981 11.125 17.5C11.125 16.8019 11.6769 16.25 12.375 16.25ZM23.625 16.25C24.3231 16.25 24.875 16.8019 24.875 17.5C24.875 18.1981 24.3231 18.75 23.625 18.75C22.9269 18.75 22.375 18.1981 22.375 17.5C22.375 16.8019 22.9269 16.25 23.625 16.25ZM18 18.125C18.6981 18.125 19.25 18.6769 19.25 19.375C19.25 20.0731 18.6981 20.625 18 20.625C17.3019 20.625 16.75 20.0731 16.75 19.375C16.75 18.6769 17.3019 18.125 18 18.125Z" fill="white"/>
</svg>
