<svg width="20" height="20" viewBox="0 0 20 20" fill="none" xmlns="http://www.w3.org/2000/svg">
<path d="M10.8333 9.1665C11.3278 9.1665 11.8111 9.01988 12.2223 8.74518C12.6334 8.47048 12.9538 8.08003 13.143 7.62321C13.3323 7.1664 13.3818 6.66373 13.2853 6.17878C13.1888 5.69383 12.9507 5.24837 12.6011 4.89874C12.2515 4.54911 11.806 4.311 11.3211 4.21454C10.8361 4.11808 10.3334 4.16759 9.87662 4.35681C9.41981 4.54603 9.02936 4.86646 8.75466 5.27758C8.47996 5.6887 8.33333 6.17205 8.33333 6.66651C8.33333 7.32955 8.59672 7.96543 9.06557 8.43427C9.53441 8.90311 10.1703 9.1665 10.8333 9.1665ZM10.8333 5.83317C10.9982 5.83317 11.1593 5.88205 11.2963 5.97361C11.4333 6.06518 11.5402 6.19533 11.6032 6.3476C11.6663 6.49987 11.6828 6.66743 11.6507 6.82908C11.6185 6.99073 11.5391 7.13922 11.4226 7.25576C11.306 7.3723 11.1576 7.45167 10.9959 7.48383C10.8343 7.51598 10.6667 7.49948 10.5144 7.4364C10.3622 7.37333 10.232 7.26652 10.1404 7.12948C10.0489 6.99244 10 6.83132 10 6.66651C10 6.44549 10.0878 6.23353 10.2441 6.07725C10.4004 5.92097 10.6123 5.83317 10.8333 5.83317ZM14.2583 9.04984C14.7459 8.3507 15.0073 7.51885 15.0073 6.66651C15.0073 5.81416 14.7459 4.98231 14.2583 4.28317C14.498 4.20588 14.7482 4.16652 15 4.1665C15.663 4.1665 16.2989 4.4299 16.7678 4.89874C17.2366 5.36758 17.5 6.00346 17.5 6.66651C17.5 7.32955 17.2366 7.96543 16.7678 8.43427C16.2989 8.90311 15.663 9.1665 15 9.1665C14.7482 9.16649 14.498 9.12713 14.2583 9.04984ZM10.8333 10.8332C5.83333 10.8332 5.83333 14.1665 5.83333 14.1665V15.8332H15.8333V14.1665C15.8333 14.1665 15.8333 10.8332 10.8333 10.8332ZM7.5 14.1665C7.5 13.9248 7.76667 12.4998 10.8333 12.4998C13.75 12.4998 14.1167 13.7998 14.1667 14.1665M20 14.1665V15.8332H17.5V14.1665C17.4805 13.547 17.3379 12.9377 17.0803 12.3739C16.8228 11.8102 16.4555 11.3034 16 10.8832C20 11.2915 20 14.1665 20 14.1665ZM6.66667 9.99984H4.16667V12.4998H2.5V9.99984H0V8.33317H2.5V5.83317H4.16667V8.33317H6.66667V9.99984Z" fill="black"/>
</svg>
