<svg width="35" height="35" viewBox="0 0 35 35" fill="none" xmlns="http://www.w3.org/2000/svg">
<circle cx="17.5" cy="17.5" r="17.5" fill="#F85547"/>
<path d="M17 9V24" stroke="white" stroke-width="2" stroke-linecap="round" stroke-linejoin="round"/>
<path d="M20.75 11.25H15.125C14.4288 11.25 13.7611 11.5266 13.2688 12.0188C12.7766 12.5111 12.5 13.1788 12.5 13.875C12.5 14.5712 12.7766 15.2389 13.2688 15.7312C13.7611 16.2234 14.4288 16.5 15.125 16.5H18.875C19.5712 16.5 20.2389 16.7766 20.7312 17.2688C21.2234 17.7611 21.5 18.4288 21.5 19.125C21.5 19.8212 21.2234 20.4889 20.7312 20.9812C20.2389 21.4734 19.5712 21.75 18.875 21.75H12.5" stroke="white" stroke-width="2" stroke-linecap="round" stroke-linejoin="round"/>
</svg>
