<svg xmlns="http://www.w3.org/2000/svg" width="25" height="24" viewBox="0 0 25 24" fill="none">
  <path d="M20.75 3H8.75C8.55109 3 8.36032 3.07902 8.21967 3.21967C8.07902 3.36032 8 3.55109 8 3.75V7.5H4.25C4.05109 7.5 3.86032 7.57902 3.71967 7.71967C3.57902 7.86032 3.5 8.05109 3.5 8.25V20.25C3.5 20.4489 3.57902 20.6397 3.71967 20.7803C3.86032 20.921 4.05109 21 4.25 21H16.25C16.4489 21 16.6397 20.921 16.7803 20.7803C16.921 20.6397 17 20.4489 17 20.25V16.5H20.75C20.9489 16.5 21.1397 16.421 21.2803 16.2803C21.421 16.1397 21.5 15.9489 21.5 15.75V3.75C21.5 3.55109 21.421 3.36032 21.2803 3.21967C21.1397 3.07902 20.9489 3 20.75 3ZM15.5 19.5H5V9H15.5V19.5ZM20 15H17V8.25C17 8.05109 16.921 7.86032 16.7803 7.71967C16.6397 7.57902 16.4489 7.5 16.25 7.5H9.5V4.5H20V15Z" fill="#F97316"/>
</svg>