<svg width="36" height="36" viewBox="0 0 36 36" fill="none" xmlns="http://www.w3.org/2000/svg">
<path d="M30.6709 18C30.6709 25.2593 24.7862 31.144 17.5269 31.144C10.2676 31.144 4.38281 25.2593 4.38281 18C4.38281 10.7407 10.2676 4.85596 17.5269 4.85596C24.7862 4.85596 30.6709 10.7407 30.6709 18Z" fill="white" fill-opacity="0.1"/>
<path d="M30.6709 18C30.6709 25.2593 24.7862 31.144 17.5269 31.144C10.2676 31.144 4.38281 25.2593 4.38281 18C4.38281 10.7407 10.2676 4.85596 17.5269 4.85596C24.7862 4.85596 30.6709 10.7407 30.6709 18Z" fill="white" fill-opacity="0.1" stroke="white" stroke-width="2.9209"/>
<path d="M13.5078 22.0189L21.5455 13.9812" stroke="white" stroke-width="2.9209" stroke-linecap="round" stroke-linejoin="round"/>
<path d="M21.5455 22.0188L13.5078 13.9811" stroke="white" stroke-width="2.9209" stroke-linecap="round" stroke-linejoin="round"/>
</svg>
