<svg width="35" height="35" viewBox="0 0 35 35" fill="none" xmlns="http://www.w3.org/2000/svg">
<circle cx="17.5" cy="17.5" r="17.5" fill="#509DF5"/>
<path d="M12.5833 12.8332C12.5833 12.5049 12.648 12.1798 12.7736 11.8765C12.8993 11.5731 13.0834 11.2976 13.3156 11.0654C13.5477 10.8333 13.8233 10.6491 14.1266 10.5235C14.4299 10.3978 14.755 10.3332 15.0833 10.3332C15.4116 10.3332 15.7367 10.3978 16.04 10.5235C16.3434 10.6491 16.619 10.8333 16.8511 11.0654C17.0832 11.2976 17.2674 11.5731 17.393 11.8765C17.5187 12.1798 17.5833 12.5049 17.5833 12.8332C17.5833 13.4962 17.3199 14.1321 16.8511 14.6009C16.3823 15.0698 15.7464 15.3332 15.0833 15.3332C14.4203 15.3332 13.7844 15.0698 13.3156 14.6009C12.8467 14.1321 12.5833 13.4962 12.5833 12.8332ZM15.0833 8.6665C13.9783 8.6665 12.9185 9.10549 12.1371 9.88689C11.3557 10.6683 10.9167 11.7281 10.9167 12.8332C10.9167 13.9382 11.3557 14.998 12.1371 15.7794C12.9185 16.5609 13.9783 16.9998 15.0833 16.9998C16.1884 16.9998 17.2482 16.5609 18.0296 15.7794C18.811 14.998 19.25 13.9382 19.25 12.8332C19.25 11.7281 18.811 10.6683 18.0296 9.88689C17.2482 9.10549 16.1884 8.6665 15.0833 8.6665ZM20.9167 8.6665H20.0833V10.3332H20.9167C21.245 10.3332 21.5701 10.3978 21.8734 10.5235C22.1767 10.6491 22.4523 10.8333 22.6844 11.0654C22.9166 11.2976 23.1007 11.5731 23.2264 11.8765C23.352 12.1798 23.4167 12.5049 23.4167 12.8332C23.4167 13.1615 23.352 13.4866 23.2264 13.7899C23.1007 14.0932 22.9166 14.3688 22.6844 14.6009C22.4523 14.8331 22.1767 15.0172 21.8734 15.1429C21.5701 15.2685 21.245 15.3332 20.9167 15.3332H20.0833V16.9998H20.9167C22.0217 16.9998 23.0815 16.5609 23.8629 15.7794C24.6443 14.998 25.0833 13.9382 25.0833 12.8332C25.0833 11.7281 24.6443 10.6683 23.8629 9.88689C23.0815 9.10549 22.0217 8.6665 20.9167 8.6665ZM8 22.8332C8 21.7281 8.43899 20.6683 9.22039 19.8869C10.0018 19.1055 11.0616 18.6665 12.1667 18.6665H18C19.1051 18.6665 20.1649 19.1055 20.9463 19.8869C21.7277 20.6683 22.1667 21.7281 22.1667 22.8332V24.4998H20.5V22.8332C20.5 22.1701 20.2366 21.5342 19.7678 21.0654C19.2989 20.5966 18.663 20.3332 18 20.3332H12.1667C11.5036 20.3332 10.8677 20.5966 10.3989 21.0654C9.93006 21.5342 9.66667 22.1701 9.66667 22.8332V24.4998H8V22.8332ZM28 22.8332C28 22.286 27.8922 21.7442 27.6828 21.2387C27.4734 20.7331 27.1665 20.2738 26.7796 19.8869C26.3927 19.5 25.9334 19.1931 25.4278 18.9837C24.9223 18.7743 24.3805 18.6665 23.8333 18.6665H23V20.3332H23.8333C24.4964 20.3332 25.1323 20.5966 25.6011 21.0654C26.0699 21.5342 26.3333 22.1701 26.3333 22.8332V24.4998H28V22.8332Z" fill="white"/>
</svg>
