<svg width="20" height="21" viewBox="0 0 20 21" fill="none" xmlns="http://www.w3.org/2000/svg">
<path d="M4.58333 6.33317C4.58333 6.00487 4.648 5.67978 4.77363 5.37646C4.89927 5.07315 5.08342 4.79755 5.31557 4.5654C5.54771 4.33326 5.82331 4.14911 6.12662 4.02347C6.42994 3.89783 6.75503 3.83317 7.08333 3.83317C7.41164 3.83317 7.73673 3.89783 8.04004 4.02347C8.34336 4.14911 8.61895 4.33326 8.8511 4.5654C9.08325 4.79755 9.2674 5.07315 9.39303 5.37646C9.51867 5.67978 9.58333 6.00487 9.58333 6.33317C9.58333 6.99621 9.31994 7.6321 8.8511 8.10094C8.38226 8.56978 7.74637 8.83317 7.08333 8.83317C6.42029 8.83317 5.78441 8.56978 5.31557 8.10094C4.84673 7.6321 4.58333 6.99621 4.58333 6.33317ZM7.08333 2.1665C5.97826 2.1665 4.91846 2.60549 4.13705 3.38689C3.35565 4.16829 2.91667 5.2281 2.91667 6.33317C2.91667 7.43824 3.35565 8.49805 4.13705 9.27945C4.91846 10.0609 5.97826 10.4998 7.08333 10.4998C8.1884 10.4998 9.24821 10.0609 10.0296 9.27945C10.811 8.49805 11.25 7.43824 11.25 6.33317C11.25 5.2281 10.811 4.16829 10.0296 3.38689C9.24821 2.60549 8.1884 2.1665 7.08333 2.1665ZM12.9167 2.1665H12.0833V3.83317H12.9167C13.245 3.83317 13.5701 3.89784 13.8734 4.02347C14.1767 4.14911 14.4523 4.33326 14.6844 4.5654C14.9166 4.79755 15.1007 5.07315 15.2264 5.37646C15.352 5.67978 15.4167 6.00487 15.4167 6.33317C15.4167 6.66148 15.352 6.98657 15.2264 7.28988C15.1007 7.59319 14.9166 7.86879 14.6844 8.10094C14.4523 8.33308 14.1767 8.51723 13.8734 8.64287C13.5701 8.76851 13.245 8.83317 12.9167 8.83317H12.0833V10.4998H12.9167C14.0217 10.4998 15.0815 10.0609 15.8629 9.27945C16.6443 8.49805 17.0833 7.43824 17.0833 6.33317C17.0833 5.2281 16.6443 4.16829 15.8629 3.38689C15.0815 2.60549 14.0217 2.1665 12.9167 2.1665ZM0 16.3332C0 15.2281 0.438987 14.1683 1.22039 13.3869C2.00179 12.6055 3.0616 12.1665 4.16667 12.1665H10C11.1051 12.1665 12.1649 12.6055 12.9463 13.3869C13.7277 14.1683 14.1667 15.2281 14.1667 16.3332V17.9998H12.5V16.3332C12.5 15.6701 12.2366 15.0342 11.7678 14.5654C11.2989 14.0966 10.663 13.8332 10 13.8332H4.16667C3.50363 13.8332 2.86774 14.0966 2.3989 14.5654C1.93006 15.0342 1.66667 15.6701 1.66667 16.3332V17.9998H0V16.3332ZM20 16.3332C20 15.786 19.8922 15.2442 19.6828 14.7387C19.4734 14.2331 19.1665 13.7738 18.7796 13.3869C18.3927 13 17.9334 12.6931 17.4278 12.4837C16.9223 12.2743 16.3805 12.1665 15.8333 12.1665H15V13.8332H15.8333C16.4964 13.8332 17.1323 14.0966 17.6011 14.5654C18.0699 15.0342 18.3333 15.6701 18.3333 16.3332V17.9998H20V16.3332Z" fill="#0F172A"/>
</svg>
