<svg width="20" height="20" viewBox="0 0 20 20" fill="none" xmlns="http://www.w3.org/2000/svg">
<g clip-path="url(#clip0_37313_20345)">
<path d="M13.125 0.0195312L20 3.45703V11.123L18.75 10.498V4.85352L13.75 7.35352V9.87305L12.5 10.498V7.35352L7.5 4.85352V7.07031L6.25 6.44531V3.45703L13.125 0.0195312ZM13.125 6.26953L14.8535 5.40039L10.332 2.8125L8.27148 3.84766L13.125 6.26953ZM16.2012 4.73633L17.9785 3.84766L13.125 1.41602L11.6699 2.14844L16.2012 4.73633ZM11.25 11.123L10 11.748V11.7383L6.25 13.6133V18.0566L10 16.1719V17.5781L5.625 19.7656L0 16.9434V10.3418L5.625 7.5293L11.25 10.3418V11.123ZM5 18.0566V13.6133L1.25 11.7383V16.1719L5 18.0566ZM5.625 12.5293L9.22852 10.7324L5.625 8.92578L2.02148 10.7324L5.625 12.5293ZM11.25 12.5195L15.625 10.332L20 12.5195V17.666L15.625 19.8535L11.25 17.666V12.5195ZM15 18.1445V15.166L12.5 13.916V16.8945L15 18.1445ZM18.75 16.8945V13.916L16.25 15.166V18.1445L18.75 16.8945ZM15.625 14.082L17.9785 12.9004L15.625 11.7285L13.2715 12.9004L15.625 14.082Z" fill="#0F172A"/>
</g>
<defs>
<clipPath id="clip0_37313_20345">
<rect width="20" height="20" fill="white"/>
</clipPath>
</defs>
</svg>
