<svg xmlns="http://www.w3.org/2000/svg" width="24" height="24" viewBox="0 0 24 24" fill="none">
  <path d="M16.5002 15C15.9999 14.9998 15.5047 15.1001 15.0438 15.2948C14.5829 15.4894 14.1658 15.7746 13.8171 16.1334L9.49522 13.3556C9.83519 12.4838 9.83519 11.5162 9.49522 10.6444L13.8171 7.86656C14.4663 8.53155 15.3392 8.9318 16.2668 8.98971C17.1943 9.04762 18.1103 8.75908 18.8371 8.18001C19.564 7.60094 20.0499 6.77261 20.2007 5.85561C20.3516 4.93861 20.1565 3.99827 19.6534 3.21691C19.1503 2.43554 18.375 1.86882 17.4778 1.62661C16.5806 1.38439 15.6254 1.48396 14.7975 1.90599C13.9695 2.32802 13.3277 3.04245 12.9966 3.91077C12.6655 4.77909 12.6685 5.73944 13.0052 6.60562L8.68335 9.38343C8.16291 8.84913 7.49496 8.48216 6.76489 8.32944C6.03481 8.17672 5.27578 8.24519 4.58481 8.52609C3.89385 8.80699 3.30235 9.28756 2.88592 9.90637C2.4695 10.5252 2.24707 11.2541 2.24707 12C2.24707 12.7459 2.4695 13.4748 2.88592 14.0936C3.30235 14.7124 3.89385 15.193 4.58481 15.4739C5.27578 15.7548 6.03481 15.8233 6.76489 15.6705C7.49496 15.5178 8.16291 15.1509 8.68335 14.6166L13.0052 17.3944C12.7157 18.1411 12.6729 18.9609 12.883 19.7338C13.0931 20.5067 13.5451 21.1919 14.1729 21.6893C14.8006 22.1867 15.5712 22.47 16.3716 22.4977C17.172 22.5255 17.9603 22.2963 18.621 21.8436C19.2818 21.391 19.7802 20.7387 20.0434 19.9822C20.3066 19.2258 20.3206 18.405 20.0836 17.64C19.8465 16.875 19.3707 16.2059 18.7259 15.7309C18.0811 15.2558 17.3011 14.9997 16.5002 15ZM16.5002 3C16.9452 3 17.3802 3.13196 17.7503 3.37919C18.1203 3.62642 18.4087 3.97783 18.579 4.38896C18.7493 4.80009 18.7938 5.25249 18.707 5.68895C18.6202 6.12541 18.4059 6.52632 18.0912 6.84099C17.7765 7.15566 17.3756 7.36995 16.9392 7.45676C16.5027 7.54358 16.0503 7.49902 15.6392 7.32873C15.2281 7.15843 14.8767 6.87004 14.6294 6.50003C14.3822 6.13002 14.2502 5.695 14.2502 5.25C14.2502 4.65326 14.4873 4.08096 14.9092 3.65901C15.3312 3.23705 15.9035 3 16.5002 3ZM6.00023 14.25C5.55522 14.25 5.1202 14.118 4.75019 13.8708C4.38018 13.6236 4.09179 13.2722 3.9215 12.861C3.7512 12.4499 3.70664 11.9975 3.79346 11.561C3.88028 11.1246 4.09457 10.7237 4.40924 10.409C4.7239 10.0943 5.12481 9.88005 5.56127 9.79323C5.99773 9.70641 6.45013 9.75097 6.86126 9.92127C7.2724 10.0916 7.6238 10.38 7.87103 10.75C8.11827 11.12 8.25023 11.555 8.25023 12C8.25023 12.5967 8.01317 13.169 7.59122 13.591C7.16926 14.0129 6.59696 14.25 6.00023 14.25ZM16.5002 21C16.0552 21 15.6202 20.868 15.2502 20.6208C14.8802 20.3736 14.5918 20.0222 14.4215 19.611C14.2512 19.1999 14.2066 18.7475 14.2935 18.311C14.3803 17.8746 14.5946 17.4737 14.9092 17.159C15.2239 16.8443 15.6248 16.63 16.0613 16.5432C16.4977 16.4564 16.9501 16.501 17.3613 16.6713C17.7724 16.8416 18.1238 17.13 18.371 17.5C18.6183 17.87 18.7502 18.305 18.7502 18.75C18.7502 19.3467 18.5132 19.919 18.0912 20.341C17.6693 20.7629 17.097 21 16.5002 21Z" fill="#F97316"/>
</svg>