<svg width="24" height="24" viewBox="0 0 24 24" fill="none" xmlns="http://www.w3.org/2000/svg">
<path d="M11.4218 7.378C11.6948 7.126 11.8318 7 11.9998 7C12.1678 7 12.3048 7.126 12.5778 7.378L13.0438 7.808C13.1868 7.941 13.2588 8.007 13.3498 8.035C13.4418 8.063 13.5398 8.05 13.7378 8.023L14.3798 7.937C14.7558 7.886 14.9448 7.861 15.0798 7.955C15.2168 8.049 15.2498 8.228 15.3148 8.585L15.4268 9.194C15.4618 9.382 15.4788 9.475 15.5358 9.55C15.5918 9.624 15.6798 9.668 15.8558 9.758L16.4288 10.048C16.7648 10.218 16.9328 10.302 16.9848 10.455C17.0368 10.608 16.9528 10.77 16.7858 11.096L16.5018 11.652C16.4138 11.822 16.3698 11.908 16.3698 12C16.3698 12.092 16.4138 12.177 16.5018 12.348L16.7858 12.904C16.9528 13.23 17.0358 13.393 16.9848 13.545C16.9328 13.698 16.7648 13.783 16.4288 13.953L15.8558 14.243C15.6798 14.332 15.5918 14.376 15.5358 14.45C15.4788 14.525 15.4618 14.618 15.4268 14.806L15.3148 15.415C15.2498 15.772 15.2168 15.951 15.0808 16.045C14.9448 16.139 14.7558 16.114 14.3798 16.063L13.7378 15.977C13.5408 15.95 13.4418 15.937 13.3498 15.965C13.2588 15.993 13.1868 16.06 13.0438 16.192L12.5778 16.622C12.3048 16.874 12.1678 17 11.9998 17C11.8318 17 11.6948 16.874 11.4218 16.622L10.9558 16.192C10.8128 16.059 10.7408 15.993 10.6498 15.965C10.5578 15.937 10.4598 15.95 10.2618 15.977L9.61982 16.063C9.24382 16.114 9.05482 16.139 8.91982 16.045C8.78282 15.951 8.74982 15.772 8.68482 15.415L8.57282 14.806C8.53782 14.619 8.52082 14.525 8.46482 14.451C8.40782 14.376 8.31982 14.331 8.14382 14.242L7.57082 13.952C7.23482 13.782 7.06682 13.698 7.01482 13.545C6.96282 13.392 7.04682 13.23 7.21382 12.904L7.49782 12.348C7.58582 12.178 7.62982 12.092 7.62982 12C7.62982 11.908 7.58582 11.823 7.49782 11.652L7.21382 11.096C7.04682 10.77 6.96382 10.607 7.01482 10.455C7.06682 10.302 7.23482 10.217 7.57082 10.047L8.14382 9.757C8.31982 9.668 8.40782 9.624 8.46382 9.55C8.52082 9.475 8.53782 9.382 8.57282 9.194L8.68482 8.585C8.74982 8.228 8.78282 8.049 8.91882 7.955C9.05482 7.861 9.24382 7.886 9.61982 7.937L10.2618 8.023C10.4588 8.05 10.5578 8.063 10.6498 8.035C10.7408 8.007 10.8128 7.941 10.9558 7.808L11.4218 7.378Z" stroke="#F97316" stroke-opacity="0.65" stroke-width="1.5" stroke-linecap="round" stroke-linejoin="round"/>
<path d="M6.48302 3.65802C6.3011 3.45724 6.08029 3.29552 5.83398 3.18267C5.58767 3.06982 5.32099 3.00819 5.05015 3.00152C4.7793 2.99486 4.50992 3.04329 4.25835 3.14388C4.00679 3.24447 3.77828 3.39513 3.5867 3.5867C3.39513 3.77828 3.24447 4.00679 3.14388 4.25835C3.04329 4.50992 2.99486 4.7793 3.00152 5.05015C3.00819 5.32099 3.06982 5.58767 3.18267 5.83398C3.29552 6.08029 3.45724 6.3011 3.65802 6.48302M6.48302 3.65802C6.82773 4.03846 7.01295 4.53691 7.00031 5.05015C6.98768 5.56338 6.77816 6.05211 6.41513 6.41513C6.05211 6.77816 5.56338 6.98768 5.05015 7.00031C4.53691 7.01295 4.03846 6.82773 3.65802 6.48302M6.48302 3.65802C8.11829 2.57343 10.0378 1.99658 12 2.00002C17.523 2.00002 22 6.47702 22 12C22.0034 13.9554 21.4305 15.8683 20.353 17.5M3.65802 6.48302C2.57343 8.11829 1.99658 10.0378 2.00002 12C2.00002 17.523 6.47702 22 12 22C13.9623 22.0034 15.8817 21.4266 17.517 20.342M17.517 20.342C17.8729 20.7353 18.3705 20.9711 18.9003 20.9976C19.4301 21.024 19.9487 20.8389 20.342 20.483C20.7353 20.1271 20.9711 19.6295 20.9976 19.0997C21.024 18.5699 20.8389 18.0513 20.483 17.658C20.3068 17.4633 20.0939 17.3051 19.8566 17.1926C19.6192 17.0802 19.362 17.0155 19.0997 17.0024C18.8374 16.9893 18.5751 17.028 18.3277 17.1163C18.0803 17.2046 17.8528 17.3408 17.658 17.517C17.4633 17.6932 17.3051 17.9061 17.1926 18.1435C17.0802 18.3808 17.0155 18.638 17.0024 18.9003C16.976 19.4301 17.1611 19.9487 17.517 20.342Z" stroke="#F97316" stroke-opacity="0.65" stroke-width="1.5" stroke-linecap="round" stroke-linejoin="round"/>
</svg>
