<svg width="35" height="35" viewBox="0 0 35 35" fill="none" xmlns="http://www.w3.org/2000/svg">
<circle cx="17.5" cy="17.5" r="17.5" fill="#422AF0"/>
<g clip-path="url(#clip0_37694_30892)">
<path d="M20.125 7.01953L27 10.457V18.123L25.75 17.498V11.8535L20.75 14.3535V16.873L19.5 17.498V14.3535L14.5 11.8535V14.0703L13.25 13.4453V10.457L20.125 7.01953ZM20.125 13.2695L21.8535 12.4004L17.332 9.8125L15.2715 10.8477L20.125 13.2695ZM23.2012 11.7363L24.9785 10.8477L20.125 8.41602L18.6699 9.14844L23.2012 11.7363ZM18.25 18.123L17 18.748V18.7383L13.25 20.6133V25.0566L17 23.1719V24.5781L12.625 26.7656L7 23.9434V17.3418L12.625 14.5293L18.25 17.3418V18.123ZM12 25.0566V20.6133L8.25 18.7383V23.1719L12 25.0566ZM12.625 19.5293L16.2285 17.7324L12.625 15.9258L9.02148 17.7324L12.625 19.5293ZM18.25 19.5195L22.625 17.332L27 19.5195V24.666L22.625 26.8535L18.25 24.666V19.5195ZM22 25.1445V22.166L19.5 20.916V23.8945L22 25.1445ZM25.75 23.8945V20.916L23.25 22.166V25.1445L25.75 23.8945ZM22.625 21.082L24.9785 19.9004L22.625 18.7285L20.2715 19.9004L22.625 21.082Z" fill="white"/>
</g>
<defs>
<clipPath id="clip0_37694_30892">
<rect width="20" height="20" fill="white" transform="translate(7 7)"/>
</clipPath>
</defs>
</svg>
