<svg width="20" height="20" viewBox="0 0 20 20" fill="none" xmlns="http://www.w3.org/2000/svg">
<path d="M10 1.25C9.22504 1.24922 8.47742 1.53643 7.9023 2.05586C7.32717 2.57529 6.96557 3.28989 6.88769 4.06094C6.8098 4.83199 7.0212 5.60447 7.48083 6.22842C7.94046 6.85238 8.61554 7.28329 9.37501 7.4375V8.75H6.70876C5.76501 8.75 5.00001 9.515 5.00001 10.4588V12.5625C4.24123 12.7174 3.56699 13.1485 3.10801 13.7722C2.64903 14.396 2.438 15.168 2.51583 15.9385C2.59367 16.709 2.95483 17.4231 3.52929 17.9425C4.10375 18.4618 4.85058 18.7494 5.62501 18.7494C6.39943 18.7494 7.14627 18.4618 7.72073 17.9425C8.29519 17.4231 8.65635 16.709 8.73418 15.9385C8.81202 15.168 8.60099 14.396 8.14201 13.7722C7.68302 13.1485 7.00878 12.7174 6.25001 12.5625V10.4588C6.25001 10.205 6.45501 10 6.70876 10H13.2925C13.545 10 13.75 10.205 13.75 10.4588V12.5625C12.9912 12.7174 12.317 13.1485 11.858 13.7722C11.399 14.396 11.188 15.168 11.2658 15.9385C11.3437 16.709 11.7048 17.4231 12.2793 17.9425C12.8537 18.4618 13.6006 18.7494 14.375 18.7494C15.1494 18.7494 15.8963 18.4618 16.4707 17.9425C17.0452 17.4231 17.4063 16.709 17.4842 15.9385C17.562 15.168 17.351 14.396 16.892 13.7722C16.433 13.1485 15.7588 12.7174 15 12.5625V10.4588C15 9.515 14.235 8.75 13.2925 8.75H10.6238V7.4375C11.3831 7.28331 12.0581 6.85249 12.5177 6.22867C12.9774 5.60485 13.1889 4.83252 13.1111 4.06156C13.0334 3.29061 12.672 2.57602 12.0972 2.05649C11.5223 1.53696 10.7749 1.24953 10 1.25ZM8.12501 4.375C8.12501 3.87772 8.32255 3.40081 8.67418 3.04918C9.02581 2.69755 9.50273 2.5 10 2.5C10.4973 2.5 10.9742 2.69755 11.3258 3.04918C11.6775 3.40081 11.875 3.87772 11.875 4.375C11.875 4.87228 11.6775 5.3492 11.3258 5.70083C10.9742 6.05246 10.4973 6.25 10 6.25C9.50273 6.25 9.02581 6.05246 8.67418 5.70083C8.32255 5.3492 8.12501 4.87228 8.12501 4.375ZM3.75001 15.625C3.75001 15.1277 3.94755 14.6508 4.29918 14.2992C4.65081 13.9475 5.12773 13.75 5.62501 13.75C6.12229 13.75 6.5992 13.9475 6.95083 14.2992C7.30246 14.6508 7.50001 15.1277 7.50001 15.625C7.50001 16.1223 7.30246 16.5992 6.95083 16.9508C6.5992 17.3025 6.12229 17.5 5.62501 17.5C5.12773 17.5 4.65081 17.3025 4.29918 16.9508C3.94755 16.5992 3.75001 16.1223 3.75001 15.625ZM14.375 13.75C14.6212 13.75 14.8651 13.7985 15.0925 13.8927C15.32 13.987 15.5267 14.1251 15.7008 14.2992C15.8749 14.4733 16.0131 14.68 16.1073 14.9075C16.2015 15.135 16.25 15.3788 16.25 15.625C16.25 15.8712 16.2015 16.115 16.1073 16.3425C16.0131 16.57 15.8749 16.7767 15.7008 16.9508C15.5267 17.1249 15.32 17.263 15.0925 17.3573C14.8651 17.4515 14.6212 17.5 14.375 17.5C13.8777 17.5 13.4008 17.3025 13.0492 16.9508C12.6976 16.5992 12.5 16.1223 12.5 15.625C12.5 15.1277 12.6976 14.6508 13.0492 14.2992C13.4008 13.9475 13.8777 13.75 14.375 13.75Z" fill="#525252"/>
</svg>
