<svg width="20" height="20" viewBox="0 0 20 20" fill="none" xmlns="http://www.w3.org/2000/svg">
<path d="M19.9998 10.625C19.9998 10.7907 19.9339 10.9497 19.8167 11.0669C19.6995 11.1841 19.5406 11.25 19.3748 11.25H18.1248V12.5C18.1248 12.6657 18.0589 12.8247 17.9417 12.9419C17.8245 13.0591 17.6656 13.125 17.4998 13.125C17.334 13.125 17.1751 13.0591 17.0579 12.9419C16.9406 12.8247 16.8748 12.6657 16.8748 12.5V11.25H15.6248C15.459 11.25 15.3001 11.1841 15.1829 11.0669C15.0656 10.9497 14.9998 10.7907 14.9998 10.625C14.9998 10.4592 15.0656 10.3002 15.1829 10.183C15.3001 10.0658 15.459 9.99995 15.6248 9.99995H16.8748V8.74995C16.8748 8.58419 16.9406 8.42522 17.0579 8.30801C17.1751 8.1908 17.334 8.12495 17.4998 8.12495C17.6656 8.12495 17.8245 8.1908 17.9417 8.30801C18.0589 8.42522 18.1248 8.58419 18.1248 8.74995V9.99995H19.3748C19.5406 9.99995 19.6995 10.0658 19.8167 10.183C19.9339 10.3002 19.9998 10.4592 19.9998 10.625ZM15.4787 15.2226C15.5854 15.3496 15.6373 15.5138 15.6229 15.6791C15.6086 15.8444 15.5292 15.9972 15.4021 16.1039C15.2751 16.2106 15.1109 16.2624 14.9457 16.2481C14.7804 16.2337 14.6276 16.1543 14.5209 16.0273C12.949 14.1554 10.7881 13.125 8.4373 13.125C6.08652 13.125 3.92558 14.1554 2.3537 16.0273C2.247 16.1542 2.09424 16.2335 1.92905 16.2478C1.76386 16.2621 1.59975 16.2102 1.47284 16.1035C1.34593 15.9968 1.26661 15.844 1.25233 15.6788C1.23804 15.5136 1.28996 15.3495 1.39667 15.2226C2.56386 13.8335 4.01542 12.8468 5.6287 12.3187C4.64894 11.7085 3.89458 10.7957 3.47975 9.7186C3.06491 8.64147 3.01218 7.45852 3.32952 6.34874C3.64687 5.23897 4.31702 4.26273 5.2386 3.56775C6.16018 2.87276 7.28304 2.49683 8.4373 2.49683C9.59156 2.49683 10.7144 2.87276 11.636 3.56775C12.5576 4.26273 13.2277 5.23897 13.5451 6.34874C13.8624 7.45852 13.8097 8.64147 13.3948 9.7186C12.98 10.7957 12.2257 11.7085 11.2459 12.3187C12.8592 12.8468 14.3107 13.8335 15.4787 15.2226ZM8.4373 11.875C9.24078 11.875 10.0262 11.6367 10.6943 11.1903C11.3624 10.7439 11.8831 10.1094 12.1906 9.3671C12.498 8.62478 12.5785 7.80794 12.4217 7.0199C12.265 6.23185 11.8781 5.50798 11.3099 4.93983C10.7418 4.37168 10.0179 3.98476 9.22985 3.82801C8.4418 3.67126 7.62497 3.75171 6.88265 4.05919C6.14032 4.36667 5.50584 4.88737 5.05945 5.55545C4.61306 6.22352 4.3748 7.00896 4.3748 7.81245C4.37604 8.88951 4.80445 9.9221 5.56605 10.6837C6.32764 11.4453 7.36024 11.8737 8.4373 11.875Z" fill="#525252"/>
</svg>
