<svg width="20" height="20" viewBox="0 0 20 20" fill="none" xmlns="http://www.w3.org/2000/svg">
<path d="M9.16026 12.3374C9.99791 11.7798 10.6339 10.9674 10.9741 10.0203C11.3143 9.07325 11.3407 8.04185 11.0494 7.07862C10.7581 6.1154 10.1646 5.27149 9.35653 4.67169C8.54851 4.07189 7.56891 3.74805 6.5626 3.74805C5.55629 3.74805 4.57669 4.07189 3.76867 4.67169C2.96065 5.27149 2.3671 6.1154 2.0758 7.07862C1.78449 8.04185 1.8109 9.07325 2.15111 10.0203C2.49133 10.9674 3.12729 11.7798 3.96494 12.3374C2.4497 12.8959 1.15565 13.9293 0.275881 15.2835C0.229643 15.3523 0.197527 15.4295 0.181398 15.5107C0.165269 15.592 0.165449 15.6756 0.181929 15.7568C0.198409 15.838 0.230858 15.915 0.277392 15.9836C0.323926 16.0521 0.383616 16.1107 0.452992 16.1559C0.522368 16.2012 0.600047 16.2322 0.681512 16.2472C0.762978 16.2621 0.846606 16.2607 0.927534 16.2431C1.00846 16.2255 1.08508 16.1919 1.15293 16.1444C1.22078 16.0969 1.2785 16.0364 1.32276 15.9664C1.89025 15.0935 2.66678 14.3763 3.58185 13.8798C4.49691 13.3833 5.52151 13.1232 6.5626 13.1232C7.60369 13.1232 8.62829 13.3833 9.54335 13.8798C10.4584 14.3763 11.235 15.0935 11.8024 15.9664C11.8941 16.1026 12.0357 16.1973 12.1966 16.23C12.3576 16.2626 12.5249 16.2307 12.6624 16.1409C12.8 16.0512 12.8967 15.911 12.9317 15.7506C12.9666 15.5901 12.9371 15.4224 12.8493 15.2835C11.9695 13.9293 10.6755 12.8959 9.16026 12.3374ZM3.1251 8.43745C3.1251 7.75758 3.32671 7.09297 3.70442 6.52768C4.08214 5.96238 4.619 5.52179 5.24713 5.26161C5.87525 5.00144 6.56641 4.93336 7.23322 5.066C7.90003 5.19864 8.51254 5.52603 8.99328 6.00677C9.47402 6.48751 9.80141 7.10002 9.93405 7.76683C10.0667 8.43363 9.99861 9.1248 9.73844 9.75292C9.47826 10.381 9.03767 10.9179 8.47237 11.2956C7.90708 11.6733 7.24247 11.8749 6.5626 11.8749C5.65124 11.8739 4.77749 11.5114 4.13306 10.867C3.48863 10.2226 3.12613 9.34881 3.1251 8.43745ZM19.5423 16.1484C19.4035 16.2389 19.2344 16.2706 19.0722 16.2365C18.91 16.2023 18.768 16.1052 18.6774 15.9664C18.1106 15.093 17.3342 14.3755 16.4189 13.8791C15.5037 13.3828 14.4788 13.1236 13.4376 13.1249C13.2718 13.1249 13.1129 13.0591 12.9957 12.9419C12.8784 12.8247 12.8126 12.6657 12.8126 12.4999C12.8126 12.3342 12.8784 12.1752 12.9957 12.058C13.1129 11.9408 13.2718 11.8749 13.4376 11.8749C13.9438 11.8745 14.4437 11.7622 14.9015 11.5461C15.3593 11.3301 15.7637 11.0156 16.0859 10.6251C16.4081 10.2346 16.64 9.77779 16.7652 9.28727C16.8903 8.79676 16.9056 8.28466 16.8099 7.78756C16.7142 7.29047 16.5098 6.82064 16.2115 6.41166C15.9132 6.00268 15.5282 5.66464 15.0841 5.42169C14.64 5.17874 14.1477 5.03688 13.6424 5.00625C13.1371 4.97562 12.6313 5.05696 12.161 5.24448C12.0844 5.27762 12.0018 5.29506 11.9183 5.29577C11.8348 5.29647 11.752 5.28043 11.6748 5.24859C11.5975 5.21675 11.5275 5.16975 11.4688 5.11038C11.41 5.05101 11.3638 4.98046 11.3327 4.90291C11.3017 4.82536 11.2866 4.74238 11.2881 4.65887C11.2897 4.57536 11.3081 4.49302 11.342 4.41671C11.376 4.3404 11.4249 4.27167 11.4858 4.21458C11.5468 4.15749 11.6186 4.1132 11.697 4.08432C12.7731 3.65514 13.9701 3.6397 15.0569 4.04097C16.1438 4.44224 17.0435 5.23179 17.5826 6.2573C18.1217 7.28282 18.2619 8.47164 17.9761 9.59442C17.6904 10.7172 16.999 11.6944 16.0353 12.3374C17.5505 12.8959 18.8445 13.9293 19.7243 15.2835C19.8148 15.4224 19.8465 15.5915 19.8124 15.7537C19.7783 15.9158 19.6811 16.0578 19.5423 16.1484Z" fill="#525252"/>
</svg>
