<svg width="20" height="20" viewBox="0 0 20 20" fill="none" xmlns="http://www.w3.org/2000/svg">
<path d="M16.6668 9.99992V6.66659H5.00016C4.55814 6.66659 4.13421 6.49099 3.82165 6.17843C3.50909 5.86587 3.3335 5.44195 3.3335 4.99992C3.3335 4.08325 4.0835 3.33325 5.00016 3.33325H15.0002V6.66659" stroke="#525252" stroke-width="1.33" stroke-linecap="round" stroke-linejoin="round"/>
<path d="M3.3335 5V15C3.3335 15.9167 4.0835 16.6667 5.00016 16.6667H16.6668V13.3333" stroke="#525252" stroke-width="1.33" stroke-linecap="round" stroke-linejoin="round"/>
<path d="M15.0002 10C14.5581 10 14.1342 10.1756 13.8217 10.4882C13.5091 10.8007 13.3335 11.2246 13.3335 11.6667C13.3335 12.5833 14.0835 13.3333 15.0002 13.3333H18.3335V10H15.0002Z" stroke="#525252" stroke-width="1.33" stroke-linecap="round" stroke-linejoin="round"/>
</svg>
